<svg width="200" height="200" viewBox="0 0 200 200" fill="none" xmlns="http://www.w3.org/2000/svg">
  <defs>
    <linearGradient id="silver-grad" x1="0%" y1="0%" x2="100%" y2="100%">
      <stop offset="0%" style="stop-color:#E8E8E8" />
      <stop offset="50%" style="stop-color:#A0A0A0" />
      <stop offset="100%" style="stop-color:#E8E8E8" />
    </linearGradient>
  </defs>
  <path d="M60 40C60 40 100 35 130 50C160 65 150 110 130 120L150 160H110L90 120H80V160H60V40ZM80 100H110C110 100 130 100 130 80C130 60 110 60 110 60H80V100Z" fill="url(#silver-grad)"/>
  <path d="M40 70C40 70 50 100 40 130C30 160 10 170 10 170L30 180C30 180 50 170 60 140C70 110 60 70 60 70L40 70Z" fill="#3D1B5D" opacity="0.6"/>
</svg>
